<?xml version="1.0" encoding="utf-8"?>
<!-- Generator: Adobe Illustrator 18.0.0, SVG Export Plug-In . SVG Version: 6.00 Build 0)  -->
<!DOCTYPE svg PUBLIC "-//W3C//DTD SVG 1.1//EN" "http://www.w3.org/Graphics/SVG/1.1/DTD/svg11.dtd">
<svg version="1.1" id="Livello_1" xmlns="http://www.w3.org/2000/svg" xmlns:xlink="http://www.w3.org/1999/xlink" x="0px" y="0px"
	 viewBox="0 0 150 50" enable-background="new 0 0 150 50" xml:space="preserve">
<g>
	<polygon points="74.8,17.9 77.9,17.5 80.6,18 85.1,19.4 86.6,18.4 87.5,17.9 88.5,17.8 88.5,17 88.2,16.5 88.6,16 89.2,16 
		89.8,16.2 89.8,16.6 89.7,17.2 90.5,18.2 92.5,18.1 93.7,17.5 94.2,17.5 94.8,18 94.6,18.6 93.8,18.4 93.1,18.6 92.7,18.8 
		92.6,19.2 91.2,19.5 90.8,19.9 91.2,20.5 91.2,20.8 90.7,20.8 90.3,20.2 89.9,20.5 90.4,20.8 91.3,20.8 93.1,20.7 93.9,21 94.7,22 
		94.8,23.1 96.3,25.2 96.9,27.6 95.2,29.9 91.5,31.6 87.2,32 83.8,32.2 85.3,35 86.1,34.3 86.4,35 85.8,36.2 87,36.8 87.6,37.4 
		89.8,39 89.6,39.8 88.8,39.9 88.5,39.2 86.8,38.2 87.3,39.3 88.8,41.2 88.8,41.7 89.3,42.4 88.8,42.8 88,42.8 87.7,42.3 87.8,41.7 
		87.4,41 85.4,39.2 84.7,39.1 84,39.8 83.2,41.6 83.4,42.4 83.1,42.8 82.2,42.8 81.8,42.2 82.2,41.5 82.9,39 82.8,37.8 82.6,37.2 
		82.6,36.8 80.4,33.7 79.9,32 80.3,30.9 81,30.4 77.9,30.4 73.7,28.9 70.2,26.5 69.5,26.2 69.8,29.9 69.6,31.3 68.7,32.9 67.9,33.2 
		65.6,32.2 63.3,29.2 61.5,26 60.9,29.5 61.8,30.2 63,30.1 63.5,31 63.2,31.4 62,31 61.8,31.5 63.3,32.5 63.5,33.8 62.8,33.8 
		62.3,32.9 61.1,33.2 60.8,35 61.5,36.6 61,37.3 60,37 60.2,35.8 58.7,35.2 56.8,35.5 55.1,37.2 54.3,38.1 53.3,37.7 53.5,36.8 
		55.5,34.5 53.3,33.8 52.4,33.5 53.4,32.5 55.3,32.8 57.2,31.5 58.4,28.6 60,22.6 61.2,21.6 63.1,22.5 64.8,23.8 65.1,21.5 
		71.6,16.9 68,16.6 62,15.5 60.7,14.5 61,13.1 69.3,9.3 68.9,8.7 68.1,8.4 68.4,7.8 69.5,7.9 70.5,8.8 72.6,8.4 73.3,7.6 74.2,7.2 
		74.7,7.8 74.1,8.1 73.4,8.9 73.4,10.1 74.2,10.1 74.8,9.9 75.2,10.1 75.9,10.6 75.2,11.1 74.8,10.9 73.1,11.2 72.2,12.1 72.7,12.8 
		73.1,13.1 72.8,13.8 72.3,13.8 72.1,13.2 71.3,12.9 70.6,13 70.3,13.3 73.5,14.2 75,14.7 75.7,15.8 75.9,16.4 	"/>
</g>
</svg>
