<?xml version="1.0" encoding="utf-8"?>
<!-- Generator: Adobe Illustrator 18.0.0, SVG Export Plug-In . SVG Version: 6.00 Build 0)  -->
<!DOCTYPE svg PUBLIC "-//W3C//DTD SVG 1.1//EN" "http://www.w3.org/Graphics/SVG/1.1/DTD/svg11.dtd">
<svg version="1.1" id="Your_Icon" xmlns="http://www.w3.org/2000/svg" xmlns:xlink="http://www.w3.org/1999/xlink" x="0px" y="0px"
	 viewBox="42 0 71 50" enable-background="new 42 0 71 50" xml:space="preserve">
<path fill="none" d="M68,23.6c-3.2,1.1-6.8-0.5-7.9-3.7c-0.9-2.6,0.4-5.4,2.9-6.3c2.1-0.7,4.3,0.3,5.1,2.4c0.6,1.6-0.3,3.5-1.9,4.1
	c-1.3,0.5-2.8-0.2-3.3-1.5c-0.4-1.1,0.1-2.2,1.2-2.6c0.9-0.3,1.8,0.1,2.1,1c0.2,0.6-0.1,1.4-0.8,1.6c-0.6,0.2-1.1-0.1-1.4-0.6
	c-0.1-0.4,0.1-0.9,0.5-1.1"/>
<g>
	<g>
		<path stroke="#FFFFFF" stroke-miterlimit="10" d="M75.4,48c-14.2-0.5-25.4-12.5-24.9-26.8c0.4-11.4,10-20.4,21.4-19.9
			c9.1,0.3,16.2,8,16,17.1c-0.3,7.3-6.4,13-13.7,12.7c-5.8-0.2-10.4-5.1-10.2-11c0.1-4.7,4.1-8.3,8.8-8.2c3.8,0.1,6.7,3.3,6.6,7.1
			c-0.1,3-2.6,5.3-5.6,5.2c-2.4-0.1-4.3-2.1-4.2-4.5c0.1-1.9,1.7-3.4,3.6-3.3"/>
		<path stroke="#FFFFFF" stroke-width="0.5" stroke-miterlimit="10" d="M72.9,16.5c1.8,0.1,3.1,1.6,3.1,3.3
			c-0.1,1.4-1.2,2.5-2.6,2.4c-1.1-0.1-2-1-1.9-2.1c0-0.9,0.8-1.6,1.7-1.6c0.7,0,1.3,0.6,1.3,1.4c0,0.6-0.5,1-1.1,1
			c-0.4,0-0.8-0.4-0.8-0.9c0-0.4,0.4-0.6,0.7-0.6c0.3,0,0.5,0.3,0.5,0.6c0,0.2-0.2,0.4-0.4,0.4"/>
	</g>
	<path d="M69.9,17.6c0.4-0.4,0.7-0.6,1.2-0.9c0.6-0.2,1.2-0.4,1.9-0.4c0.1,0,0.1,0,0.1,0c0.1,0,0.1-0.1,0.1-0.2
		c0-0.1-0.1-0.1-0.1-0.2c-0.1-0.1-0.1-0.1-0.1-0.1c-0.7,0-1.4,0.1-2,0.4h-0.1c0,0-0.1,0-0.1,0.1c-0.1,0.1-0.3,0.1-0.4,0.1
		c-0.1,0.1-0.1,0.1-0.1,0.1c-0.3,0.2-0.5,0.4-0.8,0.6C69.3,17.5,69.7,17.9,69.9,17.6z"/>
	<path d="M73.2,20.4c0.3-0.1,0.4-0.5,0.2-0.7l-0.1-0.1c-0.2-0.1-0.6,0.1-0.4,0.4l0,0c-0.2,0.1-0.1,0.4,0,0.4
		C73,20.4,73.1,20.5,73.2,20.4z"/>
	<path fill="none" stroke="#000000" stroke-miterlimit="10" d="M71.6,16.2c-1.6,0.5-2.7,2-2.8,4.1"/>
	<path d="M70.4,20.9c-0.2-0.6-0.2-1.3-0.1-1.9l0.1-0.1c0-0.1,0.1-0.1,0.1-0.2c0,0,0,0,0-0.1c0.1-0.1,0.1-0.1,0.1-0.3
		c0.1-0.2,0.3-0.4,0.4-0.6c0.1-0.1,0.4-0.3,0.5-0.4c0.1,0,0.1,0,0.1,0c0.1-0.1,0.1-0.1,0.2-0.1c0.4-0.1,0.8-0.2,1.2-0.1
		c0.4,0.1,0.4-0.5,0-0.5H73c-0.1-0.1-0.1-0.1-0.2-0.1c-0.1,0-0.4,0-0.5,0.1c-0.3,0-0.5,0.1-0.7,0.2c-0.5,0.1-1,0.4-1.3,0.9
		c-0.7,1.1-1,2.1-0.6,3.3C69.9,21.4,70.4,21.2,70.4,20.9z"/>
	<path d="M69.4,21.7c-0.4-1.1-0.4-2.4,0.1-3.4c0.1-0.3-0.4-0.5-0.5-0.1c-0.5,1.2-0.5,2.5-0.1,3.7C69,22.1,69.5,22,69.4,21.7z"/>
	<path d="M72.6,15.7c0-0.5-0.5-0.6-0.5,0H72.6z"/>
</g>
<path d="M98.5,43.2c-2.6-0.1-5.3-1.1-7.8-1.8c-1.9-0.5-4-0.4-5.9-0.1c-1.1,0.1-2.2,0.5-3.3,0.9c-1.2,0.5-2.4,0.5-3.6,0.4
	c0.9-0.3,1.6-0.5,2.5-0.7c0.9-0.1,1.9-0.4,2.8-0.5c1.4-0.2,2.6-0.6,4-0.8c1.1,0.1,2.4,0.4,3.5,0.5c2.1,0.3,4.4,0.6,6.6,0.3
	c0.5-0.1,3.3-0.9,2.7-1.9c-0.1-0.3-0.4-0.4-0.7-0.3c-1.1,0.4-1.6,1.2-2.9,1.4c-2.1,0.3-4.3,0-6.4-0.5c0.1,0,0.2,0,0.3,0
	c2-0.2,4.3-1.1,6.3-0.4c0.5,0.2,1.4,0.6,1.6-0.1c0.3-0.9-1.1-0.9-1.6-0.9c-2.2,0.1-4.3,0.4-6.6,0.6c-0.9,0.1-1.9,0.2-2.7,0.4
	c-1.2-0.3-2.4-0.4-3.6-0.5c3.7-0.7,7.4-0.1,11.3-0.6c1.3-0.1,2.5-0.6,3.6-1.2c0.1,0.1,0.3,0.1,0.4,0.2c0.6,0.3,2.7,1.9,3.3,0.9
	c0.6-1-1.4-1.6-1.9-1.7c-0.1-0.1-0.4-0.1-0.5-0.1c0.1-0.1,0.2-0.1,0.3-0.2c0.6-0.4,1.9-2,0.9-2.7c-0.4-0.2-0.6-0.1-0.8,0.1
	c-0.1,0.1-0.2,0.4-0.3,0.5c-0.4,0.8-0.8,1.4-1.4,1.9c-0.5-0.1-1-0.4-1.5-0.5c-1.1-0.3-2.2-0.2-3.3-0.2c-2.5,0-4.8,0.2-7.2,0.9
	c-0.1,0-0.1,0-0.3,0.1c-0.4,0.1-0.9,0.1-1.3,0.2c-0.3,0-0.6,0.1-0.9,0.1c1.1-0.1,2.2-0.4,3.2-1.1c0.3-0.1,0.4-0.6,0.1-0.9
	c-0.4-0.3-0.5-0.9-0.7-1.4c-0.1-0.1-0.1-0.3-0.2-0.5c-0.1-0.1-0.1-0.1-0.1-0.2c-0.1-0.1-0.1-0.1-0.1-0.1c-0.3-0.6-0.7-1.3-1.2-1.8
	c-0.6-1.3-0.7-2.9-2.4-2.6c-1.2,0.1-2.4,1-3.3,1.6c-0.9,0.4-1.6,0.9-2.5,1.3c-0.8,0.4-2,0.3-2.8,0.4c-0.4,0.1-0.5,0.5-0.3,0.8
	c-0.4,0.3-0.7,0.6-0.8,1.1c-0.1,0.4,0.1,0.8,0.5,0.9c-0.6,0.2-0.9,1.3,0,1.5c0.1,0,0.1,0,0.2,0.1c0,0.1,0,0.2,0.1,0.3
	c0.1,0,0.1,0.1,0.1,0.1c0.1,0.1,0.1,0.2,0.3,0.3c0,0.1,0,0.2,0.1,0.3c-0.1,0-0.1,0.1-0.2,0.1c-0.3,0.1-0.2,0.5,0.1,0.5
	c-0.1,0.1-0.1,0.4,0.2,0.4c-0.3,0.3-0.5,0.6-0.6,1c0,0.2,0.1,0.4,0.3,0.4c-0.1,0.1-0.1,0.1-0.1,0.2c-0.1,0.2,0.1,0.5,0.4,0.4
	c0.2-0.1,0.4-0.3,0.6-0.4c-0.1,0.3-0.4,0.6-0.4,0.9c0,0.1-0.1,0.2,0,0.3c-0.1,0.1,0.1,0.3,0.1,0.4l0,0c0,0.1-0.1,0.1-0.2,0.1
	c-0.3,0.1,0,0.6,0.3,0.4h0.1c0,0.1,0,0.1,0.1,0.2c-0.1-0.3-0.6-0.1-0.5,0.1c0.1,0.4,0.1,0.6,0.2,1c0.1,0.4,0.1,0.7,0.3,1.1
	c0,0.1,0.1,0.3,0.1,0.4s0.1,0.1,0.1,0.1l0.1,0.1c0,0.2,0,0.4,0.1,0.6c-0.3,0.1-0.2,0.5,0.1,0.5c0.1,0,0.1,0,0.2,0
	c-0.1,0-0.2,0-0.3,0c-0.3,0-0.3,0.4-0.1,0.5c0,0.2,0.1,0.4,0.4,0.3h0.1c-0.1,0.1-0.1,0.5,0.1,0.4c1.2-0.1,2.4-0.2,3.6-0.4
	c1.6,0.4,3.1,1.3,4.7,1.6c2.1,0.4,4.4,0.8,6.6,0.6c0,0,0,0,0.1,0c0.3,0.2,0.6,0.4,0.9,0.5c0.1,0,0.1,0.1,0.1,0.1
	c0,0.1,0.1,0.1,0.1,0.1c0.6,0.6,1.7,0.8,2.6,0.8c0.6,0.1,1.3,0,1.9-0.2c0.5-0.1,1-0.1,1.4-0.4c0.4-0.3,0.3-0.8-0.1-1
	c-0.6-0.3-1.3,0-1.9,0.2c-0.9,0.3-1.9-0.1-2.8-0.4c2.1-0.5,4.1-2,6.3-2.1c0.3,0.1,0.6,0.2,0.9,0.2c0.3,0,0.7,0,0.8-0.4
	c0.3-1-1.6-1.1-2.2-1.1c-1.1,0.1-2.1,0.5-3,1.1c-1.4,0.6-3.1,1.7-4.7,1.4c-0.1-0.1-0.3-0.2-0.5-0.4c-0.9-0.6-1.7-0.9-2.6-1.3
	c-1.5-0.7-3.1-1.1-4.8-1.1c0.7-0.1,1.5-0.1,2.2-0.2c1.6-0.1,3,0.9,4.6,1c0.7,0.1,1.4,0.1,2.1,0.1c0.5,0,1.2,0.1,1.6-0.1
	c0.4-0.2,0.8-0.7,0.3-1.1c-0.2-0.1-0.5-0.1-0.7-0.1c-0.9,0.1-1.7,0.3-2.6,0.3c-1.9-0.1-3.6-0.9-5.5-1.1c-1.5-0.1-3.1,0.3-4.5,0.6
	c-0.8-0.1-1.5-0.3-2.3-0.6c2.1-0.1,4.3-0.4,6.4-0.8c1.4-0.2,2.9-0.4,4.3-0.4c1.4-0.1,2.6,0.4,3.8,0.8c2.4,0.7,5.2,0.6,7.5,1.6
	c0.6,0.3,0.9,0.7,1.6,0.6c0.3-0.1,0.6-0.4,0.5-0.6C101.9,43.2,99.6,43.2,98.5,43.2z M81,37.7c1.5,0,3,0,4.5-0.3
	c2.4-0.4,4.6-1,7.1-1.2c0.8,0,1.6,0,2.4,0.1c0.8,0,1.6,0.3,2.3,0.6c-1.9,0.9-4.3,0.9-6.3,0.9c-1.9,0-3.5,0-5.1,0.1
	c-0.4,0-0.8,0-1.1,0.1c-1,0.1-2,0.4-3,0.6c-1-0.3-2-0.4-3-0.2C79.3,38,80.2,37.8,81,37.7z M79.2,40.3c1.4-0.1,2.8-0.1,4.3,0l0,0
	c-1.1,0.2-2.2,0.4-3.3,0.6h-0.1c-0.8,0.1-1.6,0.1-2.4-0.1C78.2,40.6,78.7,40.5,79.2,40.3z M82.3,45.9c2.4-0.1,4.6,0.6,6.6,1.8
	c-1.1-0.1-2.1-0.2-3.1-0.4c-1.1-0.1-2.1-0.6-3.2-0.9c-0.5-0.1-1-0.3-1.5-0.4C81.6,45.9,81.9,45.9,82.3,45.9z"/>
<circle stroke="#FFFFFF" stroke-miterlimit="10" cx="81.7" cy="32.6" r="1.1"/>
<text transform="matrix(1 0 0 1 49.543 60.1454)" font-family="'HelveticaNeue-Bold'" font-size="2.638">Created by Katy Bland</text>
<text transform="matrix(1 0 0 1 49.543 62.7832)" font-family="'HelveticaNeue-Bold'" font-size="2.638">from the Noun Project</text>
</svg>
