<?xml version="1.0" encoding="utf-8"?>
<!-- Generator: Adobe Illustrator 18.0.0, SVG Export Plug-In . SVG Version: 6.00 Build 0)  -->
<!DOCTYPE svg PUBLIC "-//W3C//DTD SVG 1.1//EN" "http://www.w3.org/Graphics/SVG/1.1/DTD/svg11.dtd">
<svg version="1.1" id="Your_Icon" xmlns="http://www.w3.org/2000/svg" xmlns:xlink="http://www.w3.org/1999/xlink" x="0px" y="0px"
	 viewBox="0 0 100 70.2" enable-background="new 0 0 100 70.2" xml:space="preserve">
<path fill="none" d="M40.2,33.2c-4.5,1.6-9.5-0.7-11.1-5.2c-1.3-3.6,0.5-7.6,4.1-8.9c2.9-1,6.1,0.4,7.1,3.3c0.8,2.3-0.4,4.9-2.7,5.7
	c-1.8,0.7-3.9-0.3-4.6-2.1c-0.5-1.5,0.2-3.1,1.7-3.6c1.2-0.4,2.5,0.2,2.9,1.4c0.3,0.9-0.1,2-1.1,2.3c-0.8,0.3-1.6-0.1-1.9-0.9
	c-0.2-0.6,0.1-1.3,0.7-1.5"/>
<g>
	<g>
		<path stroke="#FFFFFF" stroke-miterlimit="10" d="M50.5,67.4c-20-0.7-35.7-17.6-35-37.6c0.6-16,14.1-28.6,30.1-28
			C58.4,2.2,68.4,13,68,25.8c-0.4,10.3-9,18.3-19.3,17.9c-8.2-0.3-14.6-7.2-14.3-15.4c0.2-6.6,5.8-11.7,12.3-11.5
			c5.3,0.2,9.4,4.6,9.2,9.9c-0.2,4.2-3.7,7.5-7.9,7.3c-3.4-0.1-6-2.9-5.9-6.3c0.1-2.7,2.4-4.8,5-4.7"/>
		<path stroke="#FFFFFF" stroke-width="0.5" stroke-miterlimit="10" d="M47.1,23.1c2.5,0.1,4.4,2.2,4.3,4.6c-0.1,2-1.7,3.5-3.7,3.4
			c-1.6-0.1-2.8-1.4-2.7-3c0-1.3,1.1-2.2,2.4-2.2c1,0,1.8,0.9,1.8,1.9c0,0.8-0.7,1.4-1.5,1.4c-0.6,0-1.1-0.6-1.1-1.2
			c0-0.5,0.5-0.9,1-0.9c0.4,0,0.7,0.4,0.7,0.8c0,0.3-0.3,0.6-0.6,0.6"/>
	</g>
	<path d="M42.8,24.7c0.5-0.5,1-0.9,1.7-1.3c0.8-0.3,1.7-0.5,2.6-0.5c0.1,0,0.2,0,0.2,0c0.1,0,0.2-0.1,0.2-0.3c0-0.1-0.1-0.2-0.1-0.3
		c-0.1-0.1-0.1-0.1-0.2-0.1c-1,0-1.9,0.2-2.8,0.5c0,0-0.1,0-0.1,0c0,0-0.1,0-0.1,0.1c-0.2,0.1-0.4,0.2-0.6,0.2
		c-0.1,0.1-0.2,0.1-0.2,0.2c-0.4,0.3-0.7,0.6-1.1,0.9C42,24.5,42.5,25.1,42.8,24.7z"/>
	<path d="M47.5,28.7c0.4-0.2,0.6-0.7,0.3-1c0,0-0.1-0.1-0.1-0.1c-0.3-0.2-0.8,0.1-0.6,0.5c0,0,0,0,0,0c-0.3,0.2-0.2,0.5,0,0.6
		C47.2,28.7,47.3,28.8,47.5,28.7z"/>
	<path fill="none" stroke="#000000" stroke-miterlimit="10" d="M45.2,22.8c-2.2,0.7-3.8,2.8-3.9,5.8"/>
	<path d="M43.5,29.4c-0.3-0.9-0.3-1.8-0.1-2.6c0,0,0.1-0.1,0.1-0.1c0-0.1,0.1-0.2,0.1-0.3c0,0,0,0,0-0.1c0.1-0.1,0.1-0.2,0.2-0.4
		c0.2-0.3,0.4-0.6,0.6-0.9c0.2-0.2,0.5-0.4,0.7-0.5c0.1,0,0.1,0,0.2,0c0.1-0.1,0.2-0.1,0.3-0.2c0.5-0.2,1.1-0.3,1.7-0.2
		c0.5,0.1,0.5-0.7,0-0.7c0,0-0.1,0-0.1,0c-0.1-0.1-0.1-0.1-0.3-0.1c-0.2,0-0.5,0-0.7,0.1c-0.4,0-0.7,0.1-1,0.3
		c-0.7,0.2-1.4,0.6-1.8,1.3c-1,1.5-1.4,3-0.8,4.7C42.9,30,43.6,29.8,43.5,29.4z"/>
	<path d="M42.2,30.4c-0.5-1.6-0.5-3.3,0.2-4.8c0.2-0.4-0.5-0.7-0.7-0.2c-0.7,1.7-0.7,3.5-0.2,5.2C41.6,31,42.3,30.9,42.2,30.4z"/>
	<path d="M46.6,22.1c0-0.7-0.7-0.8-0.7,0L46.6,22.1z"/>
</g>
<path d="M83,60.7c-3.7-0.1-7.4-1.5-11-2.5c-2.7-0.7-5.6-0.5-8.3-0.1c-1.6,0.2-3.1,0.7-4.7,1.3c-1.7,0.7-3.4,0.7-5.1,0.6
	c1.2-0.4,2.3-0.7,3.5-1c1.3-0.2,2.6-0.5,3.9-0.7c1.9-0.3,3.7-0.8,5.6-1.1c1.6,0.2,3.3,0.5,4.9,0.7c3,0.4,6.2,0.8,9.3,0.4
	c0.7-0.1,4.6-1.2,3.8-2.6c-0.2-0.4-0.6-0.5-1-0.4c-1.5,0.5-2.3,1.7-4.1,2c-3,0.4-6,0-9-0.7c0.1,0,0.3,0,0.4,0
	c2.8-0.3,6.1-1.5,8.9-0.6c0.7,0.3,2,0.8,2.3-0.2c0.4-1.3-1.6-1.3-2.3-1.3c-3.1,0.1-6.1,0.5-9.2,0.8c-1.3,0.1-2.6,0.3-3.8,0.5
	c-1.7-0.4-3.4-0.6-5.1-0.7c5.2-1,10.4-0.2,15.8-0.9c1.8-0.2,3.5-0.8,5-1.7c0.2,0.1,0.4,0.2,0.6,0.3c0.8,0.4,3.8,2.7,4.6,1.3
	c0.8-1.4-1.9-2.2-2.7-2.4c-0.2-0.1-0.5-0.2-0.7-0.2c0.1-0.1,0.3-0.2,0.4-0.3c0.8-0.6,2.7-2.8,1.3-3.8c-0.5-0.3-0.8-0.2-1.1,0.2
	c-0.2,0.2-0.3,0.5-0.4,0.7c-0.5,1.1-1.1,1.9-2,2.6c-0.7-0.2-1.4-0.5-2.1-0.7c-1.5-0.4-3.1-0.3-4.6-0.3c-3.5,0-6.7,0.3-10.1,1.2
	c-0.1,0-0.2,0-0.4,0.1c-0.6,0.1-1.2,0.2-1.8,0.3c-0.4,0-0.8,0.1-1.2,0.1c1.6-0.2,3.1-0.6,4.5-1.5c0.4-0.2,0.5-0.8,0.1-1.2
	c-0.5-0.4-0.7-1.2-1-1.9c-0.1-0.2-0.2-0.4-0.3-0.7c-0.1-0.1-0.1-0.2-0.1-0.3c-0.1-0.1-0.1-0.1-0.1-0.2c-0.4-0.9-1-1.8-1.7-2.5
	c-0.8-1.8-1-4.1-3.3-3.7C59,39.7,57.4,41,56,41.8c-1.2,0.6-2.3,1.3-3.5,1.8c-1.1,0.5-2.8,0.4-4,0.6c-0.6,0.1-0.7,0.7-0.4,1.1
	c-0.5,0.4-1,0.8-1.1,1.5c-0.2,0.6,0.2,1.1,0.7,1.3c-0.9,0.3-1.2,1.8,0,2.1c0.1,0,0.2,0,0.3,0.1c0,0.1,0,0.3,0.2,0.4
	c0.1,0,0.1,0.1,0.2,0.1c0.1,0.2,0.2,0.3,0.4,0.4c0,0.1,0,0.3,0.2,0.4c-0.1,0-0.2,0.1-0.3,0.1c-0.4,0.1-0.3,0.7,0.1,0.7
	c-0.2,0.2-0.1,0.6,0.3,0.6c-0.4,0.4-0.7,0.8-0.9,1.4c0,0.3,0.1,0.5,0.4,0.5c-0.1,0.1-0.2,0.2-0.2,0.3c-0.2,0.3,0.2,0.7,0.5,0.5
	c0.3-0.2,0.6-0.4,0.9-0.6c-0.2,0.4-0.5,0.8-0.6,1.2c0,0.1-0.1,0.3,0,0.4c-0.1,0.2,0.1,0.4,0.1,0.5v0c0,0.1-0.2,0.1-0.3,0.2
	c-0.4,0.2,0,0.8,0.4,0.6c0,0,0.1,0,0.1,0c0,0.1,0,0.2,0.1,0.3c-0.2-0.4-0.8-0.2-0.7,0.2c0.1,0.5,0.2,0.9,0.3,1.4
	c0.1,0.5,0.2,1,0.4,1.5c0,0.2,0.1,0.4,0.1,0.5c0,0.1,0.1,0.2,0.2,0.2c0,0,0.1,0.1,0.1,0.1c0,0.3,0,0.6,0.1,0.9
	c-0.4,0.1-0.3,0.7,0.1,0.7c0.1,0,0.2,0,0.3,0c-0.1,0-0.3,0-0.4,0c-0.4,0-0.4,0.5-0.2,0.7c0,0.3,0.2,0.6,0.5,0.4c0,0,0.1,0,0.1,0
	c-0.2,0.2-0.1,0.7,0.2,0.6c1.7-0.1,3.3-0.3,5-0.6c2.2,0.6,4.3,1.8,6.6,2.3c3,0.6,6.2,1.1,9.2,0.9c0,0,0,0,0.1,0
	c0.4,0.3,0.8,0.5,1.2,0.7c0.1,0,0.1,0.1,0.2,0.1c0,0.1,0.1,0.1,0.2,0.1c0.8,0.9,2.4,1.1,3.6,1.1c0.9,0.1,1.8,0,2.6-0.3
	c0.7-0.1,1.4-0.1,2-0.5c0.6-0.4,0.4-1.1-0.2-1.4c-0.9-0.4-1.8,0-2.7,0.3c-1.2,0.4-2.6-0.2-3.9-0.5c2.9-0.7,5.7-2.8,8.8-3
	c0.4,0.1,0.8,0.3,1.3,0.3c0.4,0,1,0,1.1-0.5c0.4-1.4-2.3-1.6-3.1-1.6c-1.5,0.1-2.9,0.7-4.2,1.5c-2,0.9-4.3,2.4-6.6,2
	c-0.2-0.2-0.4-0.3-0.7-0.5c-1.2-0.8-2.4-1.3-3.6-1.8c-2.1-1-4.4-1.5-6.7-1.6c1-0.1,2.1-0.2,3.1-0.3c2.3-0.1,4.2,1.2,6.4,1.4
	c1,0.1,2,0.2,3,0.2c0.7,0,1.7,0.2,2.3-0.2c0.6-0.3,1.1-1,0.4-1.5c-0.3-0.2-0.7-0.2-1-0.1c-1.2,0.1-2.4,0.4-3.6,0.4
	c-2.6-0.1-5.1-1.3-7.7-1.5c-2.1-0.2-4.3,0.4-6.3,0.8c-1.1-0.1-2.1-0.4-3.2-0.8c3-0.1,6-0.6,9-1.1c2-0.3,4.1-0.6,6.1-0.6
	c1.9-0.1,3.7,0.5,5.4,1.1c3.4,1,7.3,0.8,10.5,2.3c0.9,0.4,1.2,1,2.2,0.8c0.4-0.1,0.8-0.6,0.7-0.9C87.7,60.6,84.5,60.7,83,60.7z
	 M58.4,52.9c2.1,0,4.2,0,6.3-0.4c3.3-0.6,6.5-1.4,9.9-1.7c1.1,0,2.2,0,3.3,0.1c1.1,0,2.2,0.4,3.2,0.8c-2.6,1.2-6,1.2-8.8,1.2
	c-2.6,0-4.9,0-7.2,0.2c-0.5,0-1.1,0-1.6,0.1c-1.4,0.1-2.8,0.5-4.2,0.8c-1.4-0.4-2.8-0.5-4.2-0.3C56.1,53.3,57.3,53.1,58.4,52.9z
	 M55.9,56.6c2-0.2,4-0.2,6.1,0c0,0,0,0,0,0c-1.5,0.3-3.1,0.6-4.6,0.9c0,0-0.1,0-0.1,0c-1.1,0.1-2.3,0.1-3.3-0.2
	C54.5,57,55.2,56.8,55.9,56.6z M60.3,64.4c3.3-0.1,6.4,0.8,9.2,2.5c-1.5-0.1-2.9-0.3-4.3-0.5c-1.5-0.2-3-0.8-4.5-1.3
	c-0.7-0.2-1.4-0.4-2.1-0.6C59.2,64.5,59.7,64.4,60.3,64.4z"/>
<circle stroke="#FFFFFF" stroke-miterlimit="10" cx="59.4" cy="45.8" r="1.5"/>
<text transform="matrix(1 0 0 1 14.2588 84.4444)" font-family="'HelveticaNeue-Bold'" font-size="3.7037">Created by Katy Bland</text>
<text transform="matrix(1 0 0 1 14.2588 88.1484)" font-family="'HelveticaNeue-Bold'" font-size="3.7037">from the Noun Project</text>
</svg>
