<?xml version="1.0" encoding="utf-8"?>
<!-- Generator: Adobe Illustrator 18.0.0, SVG Export Plug-In . SVG Version: 6.00 Build 0)  -->
<!DOCTYPE svg PUBLIC "-//W3C//DTD SVG 1.1//EN" "http://www.w3.org/Graphics/SVG/1.1/DTD/svg11.dtd">
<svg version="1.1" id="Layer_1" xmlns="http://www.w3.org/2000/svg" xmlns:xlink="http://www.w3.org/1999/xlink" x="0px" y="0px"
	 viewBox="0 0 150 50" enable-background="new 0 0 150 50" xml:space="preserve">
<path d="M92.9,33.2c-0.6-1.8-1.2-2.7-1.6-4.2c-0.1-0.3-2.5-6.9-13-13.1c-1.7-1-8.5-3-10-3.5c-0.4-0.2-0.7-0.5-0.8-0.6
	c-1-0.9-2.6-3.1-4-3.9c-2-1.1-3.4-1.3-4.8-1.4c-1.2-0.1-3.4-0.2-5.5,0.6s-2.7,2.3-2.7,2.8l-0.1,0.9c0.3,0.3,0.6,0.9,0.6,1.3
	s-0.3,1-0.3,1.6c0,0.8,0.3,2.3,1.8,3.4c1.6,1.3,3.8,2.1,5.6,3.1c0,0,0.1,0.1,0.1,0.1c1.9,1.6,0.6,3.6,0.6,3.6l-10.7-4.6
	c-3.5-1.8-6.3-0.9-8.1,1.8c-0.1,0.2-0.2,0.3-0.3,0.5c-0.1,0.2-0.1,0.3,0.1,0.4c0.1,0.1,0.3,0.1,0.4-0.1c1.3-1.6,4-1.9,5.5-0.9
	c0.1,0.1,0.2,0.1,0.2,0.2c0.3,1,0.1,0.7,0.6,2.7c0.3,1.2,1.4,2.1,1.4,2.1s8.3,7.9,9.2,8.7c1.2,1.1,3.9,1.7,6.1,0.9
	c0.9-0.3,2.8-1.2,4.7-1.9c0.5-0.2,0.8-0.1,1.1,0.3c0.5,0.5,0.8,0.9,1.9,1.9c0.3,0.3,0.3,0.6,0,1l-5.2,5.9l-0.1,0.1
	c-1.7,1.7-1.6,3.4-1.1,5.1c0.2,0.6,0.7,1.5,1.2,1.9c0.1,0.1,0.2,0.1,0.3,0.1c0.1-0.1,0.1-0.3,0.1-0.4c-0.8-2.2-0.2-3.9,1.6-4.8
	c0.9,0.5,2,1.2,2.4,1.4c1,0.5,2.3,0.3,2.9,0.2c1.8-0.5,9.6-2.5,9.6-2.5c6-1.7,7-5.4,8.5-7.3l0.1-0.1c0.8,0.2,1.2,0.2,1.8-0.2
	C93.8,35.5,93.3,34.1,92.9,33.2z M57,13.5c1.1,0.6,2.7,0.5,2.7,0.5s-0.4,1.1-1.8,1.8c-0.8,0.4-1.7,0.6-3.1,0.6
	c-1-0.1-1.8-0.5-2.2-1.2c-0.5-0.8-0.6-1.7-0.6-1.7s0.5-0.1,1.1-0.3c0.6-0.3,0.8-1.5,0.8-2c-0.5-0.1-1.3-0.1-2,0.1
	c0,0,0.1-1.2,1.1-1.5c0.9-0.2,0.9,0.3,1.9,0.3c0.1,0,0.2,0,0.2,0c0.2,0,0.5-0.1,0.7-0.1c0.7-0.2,1-0.4,1.9-0.4
	c1,0.1,2.3,0.2,2.6,1.7c-1.2-0.2-2.4-0.3-4.1-0.1C56.1,11.9,55.9,12.9,57,13.5z"/>
<path d="M53.6,10.9c-0.2,0.1-0.2,0.3-0.2,0.4c0.1,0.6,0.3,1.2,0.9,1.3c0.8,0.1,1.1-0.6,1-1.3c0-0.1,0-0.2-0.1-0.3
	C54.4,10.5,53.8,10.9,53.6,10.9z"/>
</svg>
