<?xml version="1.0" encoding="utf-8"?>
<!-- Generator: Adobe Illustrator 18.0.0, SVG Export Plug-In . SVG Version: 6.00 Build 0)  -->
<!DOCTYPE svg PUBLIC "-//W3C//DTD SVG 1.1//EN" "http://www.w3.org/Graphics/SVG/1.1/DTD/svg11.dtd">
<svg version="1.1" id="Layer_1" xmlns="http://www.w3.org/2000/svg" xmlns:xlink="http://www.w3.org/1999/xlink" x="0px" y="0px"
	 viewBox="58 0 57 50" enable-background="new 58 0 57 50" xml:space="preserve">
<g>
	<g>
		<path d="M86.5,14.5c0,0,13.6-0.6,11.6,14.2c0,0,0.1,4.9-3.9,8.7c0,0-4.9,7-7.7,6.7V14.5L86.5,14.5z"/>
		<path d="M86.5,14.5c0,0-13.6-0.6-11.6,14.2c0,0-0.1,4.9,3.9,8.7c0,0,4.9,7,7.7,6.7V14.5L86.5,14.5z"/>
	</g>
	<path d="M92.8,37.4c0,0,5.7,3.9,3.4,8.5c0,0,0,1.7-2,0L92.8,46v-1.1l-2.5-2.1l-0.5-1.5L92.8,37.4z"/>
	<path d="M79.3,37.4c0,0-5.7,3.9-3.4,8.5c0,0,0,1.7,2,0l1.4,0.1v-1.1l2.5-2.1l0.5-1.5L79.3,37.4z"/>
	<polygon points="88.3,41.4 86.5,46.7 84.9,41.3 	"/>
	<path d="M82,17.1l1.1-2.3c0,0,0.9-3.1,0.6-4.9c0,0-0.2-2.7,1.7-3.4c0,0,0.7-1.4,2.2,0c0,0,1.9,1.5,1.4,3.5c0,0,0.6,4.4,1.4,5.1v2
		H82z"/>
	<path d="M83.5,19.1l-3.3-3.5c0,0-3.1-3.5-7.8,0c0,0-7.7,7.9-6.4,10.9c0,0-1.5,3.6,0.3,3.9c0,0,1.7-0.1,2.9-1.9c0,0,1.5-3.9,3.1-4.1
		l2.1-0.3L83.5,19.1z"/>
	<path d="M88.9,19.3l3.3-3.5c0,0,3.1-3.5,7.8,0c0,0,7.7,7.9,6.4,10.9c0,0,1.5,3.6-0.3,3.9c0,0-1.7-0.1-2.9-1.9c0,0-1.5-3.9-3.1-4.1
		L98,24.3L88.9,19.3z"/>
</g>
<text transform="matrix(1 0 0 1 61.5059 59.629)" fill="#FFFFFF" font-family="'HelveticaNeue-Bold'" font-size="2.4691">Created by Jane Wiley</text>
<text transform="matrix(1 0 0 1 61.5059 62.0988)" fill="#FFFFFF" font-family="'HelveticaNeue-Bold'" font-size="2.4691">from the Noun Project</text>
</svg>
